<?xml version="1.0" standalone="no"?>
<!DOCTYPE svg PUBLIC "-//W3C//DTD SVG 20010904//EN"
 "http://www.w3.org/TR/2001/REC-SVG-20010904/DTD/svg10.dtd">
<svg version="1.0" xmlns="http://www.w3.org/2000/svg"
 width="1024.000000pt" height="1024.000000pt" viewBox="0 0 1024.000000 1024.000000"
 preserveAspectRatio="xMidYMid meet">
<metadata>
Created by potrace 1.16, written by Peter Selinger 2001-2019
</metadata>
<g transform="translate(0.000000,1024.000000) scale(0.100000,-0.100000)"
fill="#000000" stroke="none">
<path d="M4665 8597 c-185 -51 -344 -158 -434 -292 -116 -174 -161 -310 -161
-490 0 -227 81 -407 254 -567 55 -51 86 -59 134 -34 44 22 184 37 408 43 l212
6 124 121 c111 108 129 130 162 201 21 44 45 96 54 115 40 82 67 8 37 -98 -34
-116 -105 -219 -210 -302 -36 -28 -65 -55 -65 -59 0 -10 90 -41 120 -41 19 0
43 21 98 83 93 106 124 153 163 247 62 146 80 276 59 415 -42 274 -199 488
-445 606 -146 71 -351 89 -510 46z m230 -117 c-3 -5 -17 -10 -30 -10 -13 0
-38 -12 -55 -27 -17 -14 -61 -34 -98 -44 -188 -53 -370 -247 -420 -448 -20
-83 -41 -106 -68 -79 -16 16 -15 23 4 108 30 129 111 289 182 361 63 64 155
113 250 133 77 17 244 21 235 6z m-70 -209 c9 -30 -4 -49 -43 -62 -140 -45
-274 -170 -308 -285 -24 -82 -74 -100 -74 -26 0 89 59 211 133 278 102 92 275
148 292 95z m130 -210 c89 -40 143 -140 132 -246 -9 -88 -43 -137 -121 -173
-67 -31 -116 -34 -188 -12 -107 33 -171 118 -172 226 0 172 182 279 349 205z
m339 -307 c12 -32 5 -86 -21 -151 -36 -92 -120 -175 -233 -232 -91 -45 -130
-52 -130 -22 0 12 29 37 90 75 113 72 172 144 234 289 25 56 48 72 60 41z"/>
<path d="M4791 7904 c-37 -47 -18 -106 41 -127 29 -10 76 12 86 41 11 33 -1
82 -25 99 -30 23 -79 16 -102 -13z"/>
<path d="M2951 8054 c-206 -55 -413 -255 -476 -461 -20 -64 -20 -240 -1 -315
63 -235 251 -415 493 -468 167 -37 303 -20 455 56 162 82 285 257 323 460 59
312 -163 649 -480 729 -75 19 -242 19 -314 -1z m156 -102 c6 -4 14 -19 18 -34
7 -29 16 -25 -102 -44 -43 -6 -129 -52 -189 -100 -56 -45 -123 -149 -159 -247
-27 -72 -34 -82 -55 -82 -22 0 -25 5 -28 43 -2 23 4 68 13 100 53 182 197 316
385 356 76 17 101 18 117 8z m-6 -179 c13 -35 5 -53 -23 -53 -13 0 -50 -13
-83 -29 -78 -36 -147 -112 -176 -192 -24 -66 -29 -72 -54 -62 -43 16 13 194
83 266 57 60 131 92 215 96 21 1 30 -5 38 -26z m118 -201 c58 -36 81 -80 81
-159 0 -58 -3 -66 -37 -104 -49 -54 -81 -69 -146 -69 -45 0 -63 6 -103 33 -58
39 -84 86 -84 150 0 151 154 231 289 149z m261 -222 c0 -41 -67 -166 -103
-194 -82 -61 -179 -85 -207 -51 -17 20 -7 31 52 51 65 24 155 105 187 170 14
27 29 52 34 56 19 12 37 -4 37 -32z m150 3 c0 -37 -29 -123 -60 -181 -65 -123
-190 -216 -326 -245 -46 -10 -57 -9 -64 3 -17 26 -11 52 12 58 13 3 59 24 103
46 111 55 187 133 243 249 36 75 46 87 67 87 17 0 25 -5 25 -17z"/>
<path d="M6337 8043 l-499 -3 -34 -27 c-19 -14 -46 -45 -59 -68 l-25 -42 0
-446 c0 -437 0 -447 20 -467 30 -30 71 -44 82 -28 9 15 14 379 9 683 -4 233 2
257 67 274 46 12 522 26 552 16 18 -6 12 -11 -40 -36 -87 -41 -259 -169 -327
-244 -152 -166 -221 -361 -210 -595 6 -150 17 -174 141 -315 138 -156 292
-364 301 -406 15 -70 18 -72 108 -67 73 4 91 10 162 48 l80 42 115 -6 c63 -3
149 -8 190 -12 l75 -6 95 72 c121 93 139 109 215 198 126 146 185 306 185 501
0 189 -39 315 -149 483 -64 99 -111 150 -187 204 -70 50 -194 109 -250 120
-82 15 12 25 270 27 285 2 309 -1 339 -52 16 -27 17 -90 17 -738 0 -683 -1
-709 -20 -740 -31 -52 -46 -55 -225 -51 -149 3 -165 1 -184 -16 -27 -24 -27
-48 0 -72 19 -17 36 -19 200 -17 194 3 229 10 283 61 64 60 61 27 61 802 0
388 -1 726 -4 753 -3 37 -12 56 -42 91 -69 78 -65 77 -462 80 -194 1 -576 1
-850 -1z m515 -194 c75 -12 185 -64 282 -133 126 -90 243 -267 277 -421 8 -35
13 -120 13 -200 0 -126 -2 -147 -26 -213 -39 -108 -83 -176 -171 -264 -96 -95
-146 -129 -250 -168 -168 -65 -399 -47 -587 47 -83 41 -109 60 -200 153 -160
161 -200 258 -200 485 0 139 11 196 53 288 94 205 368 412 577 436 70 8 127 6
232 -10z"/>
<path d="M6613 7466 c-58 -19 -104 -49 -151 -100 -50 -54 -66 -85 -87 -166
-39 -151 34 -301 182 -376 52 -26 68 -29 148 -29 158 1 263 63 327 193 29 59
33 76 33 147 0 70 -5 89 -33 147 -44 90 -112 151 -199 178 -74 23 -158 25
-220 6z m218 -127 c66 -33 128 -138 129 -217 0 -83 -63 -171 -148 -208 -76
-33 -213 -3 -269 58 -119 130 -72 322 94 384 48 18 143 10 194 -17z"/>
<path d="M6685 7226 c-38 -16 -65 -56 -65 -94 0 -37 46 -81 92 -88 29 -5 39
-1 66 26 18 17 35 42 38 55 8 34 -22 84 -61 101 -40 16 -33 16 -70 0z"/>
<path d="M7406 7855 c-17 -16 -26 -34 -26 -55 0 -39 42 -80 81 -80 61 0 91 89
44 135 -31 32 -65 32 -99 0z"/>
<path d="M5911 7832 c-29 -24 -33 -32 -26 -60 8 -37 47 -72 82 -72 30 0 83 51
83 80 0 29 -53 80 -82 80 -13 0 -39 -13 -57 -28z"/>
<path d="M4702 7169 c-270 -26 -562 -140 -794 -311 -85 -63 -284 -255 -315
-305 -10 -16 -39 -58 -66 -95 -91 -126 -192 -373 -234 -568 -14 -67 -18 -130
-18 -305 0 -194 3 -231 23 -315 27 -113 50 -176 97 -270 19 -38 35 -76 35 -83
0 -23 -120 -27 -753 -27 l-587 0 2 828 3 827 743 5 743 5 19 55 c11 30 19 55
20 56 2 5 -1856 -5 -1882 -11 -35 -7 -37 -10 -44 -54 -4 -25 -4 -163 -1 -306
6 -295 -5 -1380 -14 -1390 -4 -3 -84 -9 -179 -12 l-173 -6 7 -111 c7 -128 22
-267 37 -346 61 -331 160 -647 286 -920 120 -259 323 -581 436 -694 l70 -69
-11 -86 c-15 -126 7 -209 75 -273 40 -38 74 -48 167 -48 76 0 84 -2 107 -26
66 -71 493 -369 660 -460 252 -138 461 -238 541 -257 15 -4 62 -23 105 -43
160 -74 312 -114 763 -201 162 -31 205 -36 345 -37 89 0 193 5 235 12 580 100
644 113 810 169 433 144 822 329 1150 547 121 80 292 211 335 255 l39 41 109
0 c74 0 117 4 136 14 35 18 99 89 112 124 15 38 15 125 -1 205 l-13 68 29 38
c203 267 257 351 378 591 217 428 314 760 366 1250 26 237 26 257 0 265 -11 3
-151 5 -312 3 l-293 -3 -2 96 -2 97 30 6 c39 8 117 81 128 121 14 53 -5 510
-24 547 -13 27 -14 57 -3 249 8 156 8 226 1 242 -6 14 -37 37 -70 54 l-58 29
-5 210 -5 209 -45 3 c-74 4 -75 2 -75 -160 0 -79 2 -170 5 -202 l5 -60 -39
-11 c-21 -6 -56 -26 -77 -44 l-39 -32 0 -124 c0 -84 7 -157 21 -230 21 -110
21 -115 -15 -128 -15 -5 -27 -190 -24 -384 l3 -192 35 -36 c40 -42 79 -65 110
-65 19 0 20 -6 20 -95 l0 -95 -197 -2 c-109 -1 -369 -1 -578 0 -209 0 -489 1
-622 1 -211 1 -243 3 -243 16 0 9 18 52 40 96 90 179 131 361 131 583 -1 219
-58 491 -141 661 -169 349 -422 610 -753 776 -90 46 -151 68 -255 94 -210 53
-348 64 -550 44z m359 -143 c180 -32 430 -139 585 -249 94 -67 258 -227 329
-322 102 -137 221 -422 250 -597 34 -205 30 -449 -10 -601 -41 -157 -137 -339
-182 -345 -32 -5 -29 8 17 79 148 229 197 602 120 924 -72 307 -301 649 -540
812 -244 165 -431 231 -681 240 -250 9 -471 -36 -694 -142 -236 -113 -496
-363 -620 -598 -65 -123 -111 -244 -141 -375 -51 -218 -33 -491 47 -717 22
-60 53 -132 69 -158 35 -57 37 -67 10 -67 -43 0 -150 250 -185 435 -25 126
-30 361 -11 484 56 367 266 703 588 942 153 114 417 220 628 254 111 17 325
18 421 1z m-38 -231 c179 -27 304 -79 494 -206 158 -106 252 -214 371 -424 76
-135 108 -217 136 -355 39 -196 41 -253 13 -416 -23 -137 -26 -146 -108 -310
-55 -111 -90 -170 -101 -172 -30 -6 -22 44 17 108 36 59 103 227 131 329 25
92 30 291 9 412 -36 216 -93 360 -196 499 -143 192 -304 315 -546 416 -334
139 -786 73 -1093 -159 -130 -99 -276 -270 -344 -406 -60 -118 -118 -331 -132
-482 -16 -184 54 -462 161 -640 40 -65 43 -79 16 -79 -27 0 -92 105 -142 229
-143 359 -112 778 83 1101 126 208 358 408 561 485 78 29 208 63 286 74 93 14
275 12 384 -4z m80 -219 c232 -61 476 -232 602 -422 108 -163 172 -452 147
-667 -15 -127 -52 -268 -91 -344 -45 -90 -161 -233 -188 -233 -13 0 -23 4 -23
10 0 5 27 44 60 87 71 93 127 218 166 369 50 192 39 368 -37 591 -39 116 -92
195 -208 305 -80 77 -116 103 -208 151 -183 95 -273 118 -458 119 -289 1 -497
-81 -678 -266 -170 -174 -254 -335 -292 -560 -42 -251 19 -522 160 -706 23
-30 47 -65 54 -77 11 -21 9 -23 -12 -23 -53 0 -148 152 -215 340 -91 261 -74
560 49 817 107 224 359 440 593 508 102 30 148 34 316 30 137 -3 182 -8 263
-29z m-126 -196 c133 -23 319 -127 437 -245 68 -68 129 -172 173 -298 21 -58
27 -97 31 -201 8 -222 -30 -358 -143 -507 -80 -107 -192 -209 -229 -209 -51 0
-25 43 65 108 76 55 116 104 171 209 67 128 92 230 92 378 -1 109 -4 129 -34
220 -62 182 -168 307 -347 406 -157 87 -275 111 -439 90 -184 -24 -290 -76
-425 -211 -85 -84 -102 -107 -147 -200 -61 -123 -82 -212 -82 -346 0 -222 72
-388 237 -550 71 -70 90 -104 57 -104 -9 0 -62 46 -118 103 -161 162 -222 303
-233 532 -9 186 23 334 99 463 52 90 219 250 301 290 176 86 328 106 534 72z
m3013 -167 c12 -13 -12 -447 -24 -455 -6 -4 -21 -8 -34 -8 -29 0 -38 24 -46
130 -4 47 -11 99 -16 115 -4 17 -11 74 -14 127 -5 86 -3 97 12 102 23 7 114
-2 122 -11z m-3031 -128 c207 -55 352 -226 377 -446 8 -74 -18 -205 -56 -285
-37 -75 -140 -176 -216 -211 -155 -71 -345 -63 -487 20 -62 37 -146 131 -189
213 -65 123 -72 248 -22 404 45 144 175 259 341 305 65 18 186 18 252 0z
m3054 -405 c4 0 7 -22 7 -49 0 -48 0 -48 -37 -55 -21 -3 -66 -6 -100 -6 l-63
0 0 61 0 61 93 -6 c50 -3 95 -5 100 -6z m15 -320 c-6 -152 -23 -167 -160 -145
-45 8 -48 17 -48 153 l0 102 106 0 107 0 -5 -110z m47 -619 c80 -40 157 -121
198 -209 26 -57 31 -81 35 -167 5 -118 -13 -205 -58 -295 -57 -114 -132 -173
-261 -206 -59 -16 -287 -17 -3014 -18 -3159 -1 -2995 -4 -3103 47 -60 27 -133
96 -164 154 -15 27 -37 84 -49 128 -28 103 -24 269 9 355 33 83 99 152 190
197 l76 38 1750 5 c963 3 2331 4 3040 3 l1290 -2 61 -30z m-3535 -1101 l0
-100 -29 0 c-59 0 -61 4 -61 106 l0 94 45 0 45 0 0 -100z m393 -285 l-1 -380
-44 0 -43 0 -3 370 c-1 203 0 376 3 383 3 9 19 12 47 10 l43 -3 -2 -380z
m-995 273 c9 -14 30 -43 46 -63 l30 -37 -3 -366 c-2 -269 -5 -369 -14 -374 -7
-4 -84 -5 -172 -1 -239 10 -1199 9 -1361 -1 l-141 -9 -6 369 -6 369 51 60 c28
33 57 65 63 70 8 6 274 10 754 10 l741 0 18 -27z m3661 -60 l74 -82 -6 -180
c-4 -98 -7 -256 -7 -351 l0 -171 -885 1 -885 0 1 343 1 342 37 48 c21 26 59
66 84 90 l47 42 732 0 733 0 74 -82z m-2254 -32 c53 -35 73 -120 40 -169 -28
-44 -129 -62 -185 -34 -30 15 -60 71 -60 110 0 37 35 85 74 103 37 17 97 12
131 -10z m-749 -119 c68 -62 54 -164 -26 -188 -49 -15 -139 2 -164 30 -25 28
-31 83 -12 119 26 50 62 72 117 72 42 0 55 -5 85 -33z m724 -307 c0 -119 0
-120 -25 -126 -14 -3 -36 -3 -50 0 -25 6 -25 7 -25 120 0 62 3 116 7 119 3 4
26 7 50 7 l43 0 0 -120z m-780 -62 l0 -89 -42 3 -43 3 -3 79 c-2 44 -1 84 1
90 3 7 21 10 46 8 l41 -4 0 -90z m550 -275 c85 -20 226 -94 295 -156 98 -87
187 -232 221 -358 20 -77 23 -204 5 -279 -22 -96 -107 -256 -170 -319 -139
-142 -315 -216 -511 -215 -197 1 -350 64 -485 199 -90 90 -135 160 -171 267
-50 145 -43 294 20 446 47 112 113 202 202 272 90 72 239 147 314 159 70 10
197 3 280 -16z m-1286 -189 c36 -92 46 -128 38 -136 -18 -18 -40 8 -92 113
-27 53 -55 98 -62 100 -23 8 -1012 -8 -1030 -16 -10 -4 -39 -49 -64 -101 -39
-79 -50 -94 -70 -94 -13 0 -24 4 -24 8 0 5 18 56 40 115 22 58 40 111 40 116
0 13 54 14 505 13 187 -1 410 2 495 6 85 4 160 6 165 4 6 -1 32 -59 59 -128z
m3644 -7 c29 -68 52 -129 52 -136 0 -8 -11 -11 -31 -9 -29 3 -33 9 -64 87 -18
46 -41 91 -50 100 -14 14 -72 16 -566 15 -637 -1 -579 9 -641 -114 -33 -68
-59 -100 -80 -100 -19 0 -5 60 37 151 25 54 45 103 45 109 0 6 190 11 578 13
317 1 598 3 623 5 l46 2 51 -123z m-3490 -414 l112 -6 0 -39 0 -38 -484 0
c-266 0 -504 -3 -530 -6 l-46 -7 0 46 0 47 173 3 c387 6 668 7 775 0z m2802
-2 l175 -6 3 -38 3 -37 -568 2 -568 3 -3 34 c-2 20 2 37 10 42 15 10 683 10
948 0z m-42 -251 l-3 -35 -105 -8 c-58 -4 -268 -4 -465 0 l-360 8 -3 23 c-8
52 -26 50 473 48 l466 -1 -3 -35z m-2638 -5 l0 -35 -402 2 -403 3 -3 33 -3 32
405 0 406 0 0 -35z m2079 -179 c7 -8 11 -30 9 -48 -3 -31 -5 -33 -48 -36 -25
-2 -127 -1 -228 3 -196 8 -201 9 -188 60 6 24 7 24 144 28 75 1 174 4 218 5
61 1 85 -2 93 -12z m-2021 -38 l3 -38 -204 0 c-221 0 -220 0 -210 53 l5 27
202 -2 201 -3 3 -37z"/>
<path d="M4760 5673 c-28 -32 -32 -41 -27 -77 8 -56 52 -96 106 -96 32 0 44 6
70 35 65 75 24 175 -72 175 -39 0 -49 -5 -77 -37z"/>
<path d="M2274 4601 c-2 -2 -4 -33 -4 -68 l0 -63 80 0 80 0 0 -220 0 -221 68
3 67 3 3 217 2 217 83 3 82 3 3 65 3 65 -231 0 c-128 0 -234 -2 -236 -4z"/>
<path d="M2970 4597 c-86 -24 -166 -91 -196 -163 -21 -50 -18 -163 6 -228 50
-132 214 -213 353 -172 158 46 257 217 213 368 -19 68 -86 147 -150 178 -56
26 -164 35 -226 17z m171 -151 c107 -73 85 -227 -39 -276 -90 -35 -202 51
-202 157 0 115 143 185 241 119z"/>
<path d="M3482 4603 l-42 -4 2 -282 3 -282 62 -3 61 -3 7 76 c4 42 4 102 1
135 -7 57 0 110 13 110 3 0 53 -62 111 -137 144 -188 140 -185 198 -181 l47 3
3 279 c1 154 -1 282 -5 286 -5 3 -34 4 -65 2 l-58 -4 -1 -111 c0 -62 -4 -132
-7 -156 l-7 -44 -39 58 c-21 32 -57 81 -80 110 -22 28 -59 74 -81 103 -26 33
-47 51 -60 50 -11 -1 -39 -3 -63 -5z"/>
<path d="M4929 4603 c-184 -3 -187 -4 -193 -26 -11 -41 -7 -535 5 -542 5 -4
37 -4 70 0 l59 7 0 99 0 99 114 0 114 0 4 58 c2 31 2 61 0 66 -3 4 -56 5 -118
1 l-114 -7 0 56 0 56 88 0 c48 0 111 3 140 7 l53 6 -3 61 c-2 46 -7 61 -18 61
-8 0 -99 -1 -201 -2z"/>
<path d="M5393 4596 c-137 -45 -213 -144 -213 -280 0 -266 322 -390 505 -195
64 68 85 118 85 203 0 106 -53 198 -147 253 -55 32 -163 41 -230 19z m163
-146 c35 -22 74 -91 74 -131 0 -14 -10 -45 -22 -69 -28 -54 -94 -94 -144 -86
-43 6 -98 44 -120 81 -24 40 -24 123 -1 159 43 65 146 87 213 46z"/>
<path d="M6434 4596 c-3 -7 -4 -103 -2 -213 l3 -200 30 -49 c19 -30 49 -60 79
-79 44 -27 58 -30 125 -30 88 1 134 20 192 82 69 72 72 86 77 306 l4 197 -23
0 c-13 0 -48 -3 -76 -6 l-53 -7 0 -176 c0 -193 -4 -207 -60 -236 -46 -24 -92
-19 -122 13 -46 49 -48 59 -41 241 l6 171 -67 0 c-47 0 -68 -4 -72 -14z"/>
<path d="M7083 4603 c-43 -6 -44 -13 -41 -318 l3 -250 62 -3 c78 -4 78 -4 68
180 -4 86 -3 138 3 138 5 0 26 -29 47 -64 53 -91 92 -136 119 -136 22 0 58 42
125 148 18 28 37 52 42 52 5 0 9 -72 9 -160 l0 -161 63 3 62 3 8 190 c4 105 6
232 5 284 l-3 95 -30 -1 c-114 -2 -112 -1 -136 -40 -51 -85 -141 -203 -151
-197 -14 9 -122 174 -137 212 -14 34 -26 36 -118 25z"/>
<path d="M4060 4315 l0 -285 194 0 c107 0 201 3 210 6 12 5 16 21 16 71 l0 65
-57 -3 c-32 -2 -98 -2 -146 -1 l-88 2 3 43 3 42 117 3 116 3 7 49 c4 27 4 54
0 60 -4 6 -53 10 -124 10 l-117 0 -3 45 -2 45 103 0 c57 0 120 3 141 6 l37 7
0 58 0 59 -205 0 -205 0 0 -285z"/>
<path d="M5866 4584 c-3 -9 -6 -137 -6 -285 l0 -269 64 0 64 0 7 83 7 82 50
-2 c27 0 51 -3 53 -5 1 -1 26 -39 53 -82 l51 -80 63 3 c35 1 67 6 72 11 6 6
-13 43 -47 95 -31 46 -57 88 -57 91 0 3 11 15 25 26 32 25 62 84 71 135 13 83
-35 163 -118 197 -55 23 -343 23 -352 0z m276 -114 c60 -17 77 -74 37 -124
-19 -24 -26 -26 -99 -26 l-78 0 -4 75 c-3 68 -1 75 17 78 40 8 91 7 127 -3z"/>
<path d="M2087 4549 c-9 -6 -30 -38 -46 -73 -24 -54 -33 -64 -60 -69 -30 -6
-31 -8 -31 -59 0 -83 -6 -95 -55 -107 -56 -14 -70 -32 -59 -74 13 -43 75 -67
123 -47 37 15 61 55 61 103 0 32 2 33 30 29 16 -2 41 -1 55 2 l25 6 0 134 c0
166 -3 178 -43 155z"/>
<path d="M7973 4420 c-14 -6 -26 -23 -32 -47 -6 -21 -26 -54 -46 -73 -44 -42
-46 -74 -5 -95 41 -21 70 -19 110 9 19 13 46 27 60 31 52 16 58 35 44 139 l-7
46 -51 -1 c-28 0 -61 -4 -73 -9z"/>
<path d="M2484 3545 c-4 -8 -4 -22 0 -30 5 -13 88 -15 688 -13 l683 3 0 25 0
25 -683 3 c-600 2 -683 0 -688 -13z"/>
<path d="M2493 3413 c-7 -2 -13 -16 -13 -29 l0 -24 173 -2 c94 -1 260 -3 367
-5 107 -1 340 0 518 4 l323 5 -3 27 -3 26 -675 2 c-371 1 -681 -1 -687 -4z"/>
<path d="M2656 3239 c-76 -51 -101 -91 -101 -164 0 -74 26 -120 95 -166 l45
-30 390 3 c215 2 422 -1 460 -5 63 -8 74 -6 115 15 53 27 106 94 116 145 9 46
-9 116 -41 164 -46 70 -38 69 -562 69 l-470 0 -47 -31z m946 -70 c13 -5 33
-25 46 -43 38 -55 27 -99 -34 -136 -32 -20 -40 -21 -74 -11 -90 27 -110 143
-32 185 32 18 63 20 94 5z m-758 -27 c14 -16 29 -45 33 -65 5 -32 1 -41 -30
-72 -24 -24 -44 -35 -63 -35 -73 0 -130 78 -104 141 26 62 117 79 164 31z
m496 -56 l0 -84 -165 -1 -165 0 0 84 0 85 165 0 165 0 0 -84z"/>
<path d="M6110 3520 l0 -30 671 0 670 0 -3 28 -3 27 -667 3 -668 2 0 -30z"/>
<path d="M6117 3403 c-4 -3 -7 -19 -7 -35 l0 -28 668 2 667 3 3 24 c2 13 -2
28 -10 32 -15 10 -1311 12 -1321 2z"/>
<path d="M6310 3243 c-43 -17 -90 -57 -119 -99 -44 -67 -44 -133 2 -200 43
-66 92 -90 177 -87 36 1 182 5 325 8 143 3 276 10 295 16 29 8 46 6 94 -10
119 -42 210 -19 270 66 43 62 47 134 11 201 -15 28 -41 63 -57 79 l-29 28
-477 2 c-262 1 -484 -1 -492 -4z m911 -106 c19 -12 42 -39 52 -59 16 -33 17
-40 3 -72 -16 -37 -59 -66 -100 -66 -14 0 -41 14 -61 31 -29 26 -35 38 -35 70
0 48 24 87 65 105 39 17 37 18 76 -9z m-772 -22 c17 -20 33 -46 37 -59 12 -50
-49 -116 -107 -116 -27 0 -86 36 -99 60 -34 63 23 150 98 150 33 0 45 -6 71
-35z m513 -67 c-2 -51 -5 -94 -6 -94 0 -1 -85 1 -188 4 l-186 5 10 29 c6 16 8
56 6 89 l-4 59 186 0 186 0 -4 -92z"/>
<path d="M4845 2401 c-64 -16 -116 -52 -160 -111 -56 -77 -68 -116 -63 -198 5
-82 28 -133 88 -192 65 -66 124 -92 213 -93 120 -3 210 54 283 179 25 42 29
59 29 124 0 59 -5 85 -24 122 -46 91 -131 151 -237 168 -66 11 -86 11 -129 1z
m148 -105 c48 -17 72 -39 109 -95 45 -71 33 -158 -30 -224 -41 -43 -75 -57
-140 -57 -47 0 -67 6 -103 29 -91 57 -120 149 -76 243 45 99 139 139 240 104z"/>
<path d="M4865 2175 c-38 -37 -34 -85 10 -124 43 -38 64 -39 104 -5 25 20 31
34 31 64 0 79 -91 120 -145 65z"/>
<path d="M2753 6386 c-93 -22 -198 -81 -281 -160 -91 -86 -141 -161 -183 -273
-31 -84 -33 -94 -33 -228 -1 -157 7 -190 76 -329 150 -300 558 -436 859 -286
75 38 84 50 69 94 -6 20 -16 38 -21 42 -6 3 -42 -10 -82 -29 -101 -49 -161
-61 -281 -54 -124 6 -200 34 -301 110 -84 63 -161 173 -195 276 -32 99 -26
259 14 376 45 132 159 265 279 327 121 62 335 63 482 2 151 -63 142 -62 171
-32 15 14 24 33 21 40 -8 22 -143 89 -222 111 -93 25 -287 32 -372 13z"/>
<path d="M6629 6257 c-74 -29 -181 -93 -214 -128 -25 -25 -26 -30 -16 -62 20
-60 33 -63 86 -17 83 72 203 120 301 120 39 0 53 -4 58 -17 9 -22 2 -27 -79
-53 -93 -29 -180 -73 -233 -118 -25 -20 -54 -44 -65 -53 -19 -16 -20 -20 -8
-74 l13 -57 33 49 c18 27 50 62 71 78 62 47 165 95 206 95 35 0 38 -2 44 -37
5 -29 3 -39 -11 -50 -11 -7 -26 -13 -34 -13 -33 0 -118 -49 -160 -91 -24 -24
-55 -68 -68 -96 -29 -64 -35 -68 -58 -43 -17 19 -17 53 0 93 6 13 4 16 -9 11
-14 -5 -16 -29 -16 -173 0 -224 -11 -309 -62 -488 -11 -39 -10 -44 11 -67 33
-35 147 -93 222 -112 79 -21 288 -23 374 -5 202 43 424 259 480 466 26 95 31
239 11 329 -34 152 -143 319 -262 402 -82 58 -129 80 -229 109 -119 34 -301
35 -386 2z m256 -458 c97 -25 175 -131 161 -221 -16 -108 -95 -173 -207 -172
-69 1 -111 23 -156 82 -79 104 -36 265 83 307 48 17 64 18 119 4z m343 -275
c4 -52 -30 -145 -70 -190 -40 -46 -146 -96 -213 -102 -47 -4 -54 -2 -60 17 -8
27 10 51 39 51 30 0 115 41 154 75 41 34 74 86 92 140 17 54 19 57 38 53 12
-2 18 -15 20 -44z m156 11 c19 -20 14 -53 -25 -155 -50 -131 -158 -239 -289
-289 -123 -47 -200 -51 -200 -10 0 20 61 55 135 79 147 47 259 157 307 303 30
89 42 101 72 72z"/>
<path d="M6795 5655 c-34 -33 -32 -67 6 -99 38 -32 59 -33 87 -3 29 31 29 77
-1 105 -30 29 -62 28 -92 -3z"/>
<path d="M2833 5999 c-63 -24 -144 -95 -181 -158 -36 -62 -38 -170 -3 -246 28
-64 107 -139 168 -159 112 -38 245 -10 334 72 48 45 51 50 59 117 17 128 13
216 -12 265 -25 49 -96 103 -156 120 -58 16 -152 11 -209 -11z m197 -99 c25
-13 49 -37 66 -65 23 -40 26 -54 22 -114 -6 -112 -68 -182 -169 -189 -75 -6
-120 10 -163 58 -86 96 -64 227 51 301 58 36 133 40 193 9z"/>
<path d="M2892 5783 c-33 -28 -37 -66 -10 -96 33 -36 60 -41 91 -16 21 16 27
29 27 58 0 64 -61 94 -108 54z"/>
<path d="M8300 6010 c-13 -8 -16 -52 -18 -279 l-3 -269 120 -7 c110 -7 120 -9
111 -25 -7 -14 -27 -18 -97 -22 -48 -3 -92 -2 -97 3 -5 4 -17 -2 -26 -14 -18
-22 -23 -48 -21 -95 l1 -24 159 4 c88 1 162 6 166 10 4 3 0 44 -9 90 -8 46
-18 106 -21 133 -15 123 -59 307 -96 402 l-41 103 -56 0 c-31 0 -64 -5 -72
-10z"/>
<path d="M1545 5960 c-4 -6 -13 -9 -20 -6 -26 10 -112 -283 -159 -540 -26
-146 -35 -134 98 -134 63 0 116 3 119 8 2 4 1 154 -2 334 -4 224 -10 331 -17
338 -9 9 -14 9 -19 0z"/>
<path d="M1337 5163 c-4 -3 -7 -35 -7 -69 l0 -63 33 -6 c17 -3 75 -5 127 -3
l95 3 3 66 c3 62 1 67 -20 73 -31 8 -223 8 -231 -1z"/>
<path d="M8313 5163 c-37 -5 -47 -20 -57 -80 -5 -36 -3 -43 14 -48 34 -11 330
-9 341 2 6 6 9 37 7 69 l-3 59 -135 1 c-74 1 -150 -1 -167 -3z"/>
<path d="M1455 3058 c-293 -94 -410 -130 -471 -148 l-71 -20 -6 -107 c-4 -58
-7 -195 -7 -305 l0 -198 -40 0 c-91 0 -180 -83 -180 -168 0 -38 5 -50 39 -83
36 -36 42 -39 98 -39 73 0 121 30 152 93 19 40 21 61 22 273 1 126 4 260 8
298 l6 70 205 66 c113 37 217 70 233 73 l27 7 0 -153 c0 -85 -3 -182 -6 -216
l-7 -61 -39 0 c-49 0 -86 -19 -126 -65 -37 -42 -46 -72 -39 -127 17 -130 190
-142 268 -20 l29 46 0 403 c0 458 11 415 -95 381z"/>
<path d="M8995 2970 c-216 -65 -350 -101 -415 -110 -41 -7 -84 -13 -96 -15
-20 -4 -20 -8 -16 -280 l5 -275 -37 0 c-78 0 -153 -64 -163 -139 -6 -45 13
-88 57 -125 63 -52 168 -22 217 62 l26 44 -1 288 0 289 31 6 c18 4 86 24 152
45 66 21 147 46 180 55 33 9 68 18 78 21 16 5 17 -11 17 -235 l0 -241 -36 0
c-146 0 -219 -182 -108 -269 32 -25 110 -29 153 -7 35 18 91 81 92 104 4 48
-3 760 -8 780 -6 27 -41 28 -128 2z"/>
</g>
</svg>
