<?xml version="1.0" standalone="no"?>
<!DOCTYPE svg PUBLIC "-//W3C//DTD SVG 20010904//EN"
 "http://www.w3.org/TR/2001/REC-SVG-20010904/DTD/svg10.dtd">
<svg version="1.0" xmlns="http://www.w3.org/2000/svg"
 width="1365.000000pt" height="1365.000000pt" viewBox="0 0 1365.000000 1365.000000"
 preserveAspectRatio="xMidYMid meet">
<metadata>
Created by potrace 1.16, written by Peter Selinger 2001-2019
</metadata>
<g transform="translate(0.000000,1365.000000) scale(0.100000,-0.100000)"
fill="#000000" stroke="none">
<path d="M0 6825 l0 -6825 6825 0 6825 0 0 6825 0 6825 -6825 0 -6825 0 0
-6825z m6720 4635 c47 -12 123 -40 169 -61 366 -170 590 -506 608 -910 6 -139
-3 -214 -43 -342 -56 -177 -142 -319 -287 -471 -59 -62 -78 -76 -103 -76 -35
0 -154 38 -154 49 0 5 40 44 89 87 146 130 215 228 265 376 14 42 26 95 26
118 0 43 -14 80 -30 80 -5 0 -44 -68 -85 -150 l-77 -150 -161 -165 -162 -164
-295 -11 c-296 -10 -461 -27 -535 -54 -90 -34 -131 -14 -253 120 -85 94 -121
148 -178 269 -57 122 -76 210 -81 385 -4 121 -1 162 16 248 57 273 246 552
466 687 126 78 287 137 430 159 73 11 292 -3 375 -24z m-2292 -747 c215 -82
389 -241 489 -448 115 -240 115 -488 -1 -729 -89 -186 -207 -310 -368 -389
-200 -98 -377 -118 -595 -67 -307 72 -539 280 -640 575 -29 85 -42 290 -25
398 22 141 107 293 237 423 129 130 232 197 375 245 83 29 89 29 265 26 173
-3 183 -4 263 -34z m5662 -16 c54 -21 102 -66 138 -127 l27 -45 0 -975 c0
-785 -3 -985 -13 -1027 -11 -43 -24 -62 -66 -101 -29 -26 -70 -54 -92 -61 -25
-8 -122 -15 -269 -18 -202 -5 -235 -4 -263 11 -60 31 -48 106 19 120 17 3 119
6 226 6 230 0 253 6 283 73 18 41 20 79 25 613 4 313 3 743 -2 956 l-8 386
-24 26 c-45 48 -72 51 -413 50 -174 -1 -343 -5 -375 -9 l-58 -7 80 -27 c101
-34 250 -111 326 -168 152 -115 333 -396 390 -608 31 -113 34 -422 5 -535 -71
-280 -248 -503 -602 -759 l-32 -23 -250 17 -251 17 -88 -47 c-106 -56 -174
-75 -269 -75 -81 0 -93 8 -113 77 -21 74 -152 255 -390 538 -149 178 -178 229
-193 343 -12 97 -4 295 16 388 48 222 179 443 345 581 103 86 270 202 344 239
37 19 65 39 62 44 -8 13 -295 13 -539 0 -209 -11 -250 -22 -274 -73 -11 -22
-13 -102 -12 -360 1 -388 -10 -840 -20 -858 -11 -17 -55 -3 -93 30 l-32 29 -3
602 -3 601 37 54 c20 30 55 71 77 90 l42 35 1130 -2 c1060 -3 1133 -4 1175
-21z m-92 -220 c51 -54 49 -137 -3 -171 -47 -31 -109 -9 -141 49 -47 87 78
192 144 122z m-1991 -25 c13 -8 32 -30 44 -48 l21 -35 -25 -38 c-32 -49 -87
-77 -119 -60 -39 20 -67 51 -79 86 -10 32 -9 37 16 63 34 35 83 60 104 52 9
-3 26 -12 38 -20z m-1217 -911 c333 -58 521 -131 785 -306 315 -209 562 -491
745 -850 148 -290 218 -630 207 -1005 -8 -280 -45 -437 -162 -690 -30 -65 -55
-125 -55 -133 0 -8 14 -17 31 -21 17 -3 508 -6 1091 -6 l1059 0 -3 121 -3 121
-51 19 c-33 13 -71 39 -108 76 l-58 58 5 340 c3 187 10 357 15 378 5 20 20 46
33 56 l23 19 -23 138 c-13 83 -25 205 -28 305 l-6 165 60 45 c34 25 80 51 104
58 l44 12 -4 260 c-4 302 -2 309 72 309 89 0 87 3 87 -134 0 -66 3 -191 7
-277 l6 -155 54 -29 c72 -38 102 -62 114 -94 7 -17 6 -116 -2 -303 -11 -250
-11 -283 4 -350 20 -87 37 -342 37 -559 0 -155 0 -156 -29 -199 -36 -54 -102
-107 -153 -122 -27 -8 -37 -16 -33 -26 3 -7 5 -64 5 -126 l0 -113 383 4 c210
2 396 0 412 -5 28 -8 30 -12 33 -62 7 -113 -56 -603 -108 -851 -79 -375 -185
-666 -401 -1099 -138 -277 -229 -425 -409 -666 l-132 -177 17 -105 c19 -113
16 -232 -6 -274 -25 -49 -101 -127 -142 -147 -38 -18 -62 -21 -183 -21 l-140
0 -35 -36 c-18 -20 -74 -68 -122 -106 -489 -391 -1069 -700 -1797 -956 -244
-86 -393 -121 -886 -207 -337 -58 -390 -64 -624 -60 -214 3 -289 13 -704 100
-383 80 -551 128 -746 215 -52 23 -135 55 -185 71 -98 33 -484 221 -660 322
-283 163 -757 491 -887 615 l-38 36 -122 6 c-68 4 -134 12 -148 17 -36 16
-107 91 -130 139 -34 69 -42 145 -29 273 l11 113 -79 82 c-275 280 -627 922
-796 1451 -137 428 -202 768 -232 1217 l-7 96 74 6 c40 3 143 8 228 11 85 4
159 10 163 14 13 13 28 1042 25 1681 -3 623 -3 632 39 644 40 11 351 16 1411
22 859 5 1112 4 1112 -5 0 -7 -10 -41 -22 -75 l-22 -63 -245 -6 c-135 -4 -471
-7 -746 -7 -275 0 -611 -3 -747 -7 l-248 -6 0 -1099 0 -1099 863 4 c474 2 874
7 890 12 15 4 27 13 27 20 0 8 -21 58 -46 112 -65 140 -82 184 -116 308 -31
110 -31 111 -35 419 -6 387 3 455 91 715 74 216 166 398 293 576 75 107 287
321 425 432 289 231 727 404 1118 442 134 14 355 5 490 -18z m-2705 -1031
c148 -24 375 -130 375 -176 0 -22 -46 -64 -70 -64 -11 0 -73 21 -136 46 -144
57 -234 74 -383 74 -209 0 -335 -49 -477 -186 -167 -163 -244 -353 -244 -601
0 -128 17 -208 64 -301 67 -133 152 -229 276 -311 129 -86 205 -106 400 -105
168 0 157 -3 353 79 61 26 69 27 83 13 24 -24 30 -95 10 -117 -23 -25 -157
-87 -236 -108 -99 -27 -328 -24 -435 5 -138 38 -297 124 -388 211 -93 87 -188
242 -239 389 -21 62 -23 84 -23 277 l0 210 37 88 c54 129 99 203 175 289 151
170 333 277 503 298 75 9 270 3 355 -10z m5178 -155 c246 -43 466 -181 596
-374 57 -84 125 -230 145 -312 11 -43 16 -110 16 -197 0 -216 -46 -364 -161
-517 -147 -196 -361 -339 -542 -364 -100 -14 -313 -14 -396 0 -142 23 -360
131 -379 188 -5 16 -2 47 10 90 52 187 77 417 78 706 0 66 4 127 10 135 16 25
22 4 10 -39 -8 -32 -8 -48 2 -69 21 -44 46 -34 83 33 65 119 178 217 288 250
27 8 56 20 63 26 16 13 19 76 5 98 -16 25 -100 8 -197 -39 -92 -44 -193 -129
-235 -197 -12 -18 -24 -31 -28 -28 -5 2 -14 32 -21 65 l-13 61 29 30 c81 85
225 169 389 228 116 41 123 45 109 68 -8 14 -27 19 -77 21 -120 5 -253 -45
-391 -147 -38 -28 -72 -51 -76 -51 -14 0 -38 36 -48 72 -13 49 6 74 107 140
96 63 184 104 257 122 79 19 261 20 367 1z m-5160 -365 c27 -13 73 -45 102
-72 78 -71 89 -111 82 -297 -6 -162 -16 -206 -53 -250 -34 -40 -117 -94 -189
-121 -76 -28 -217 -31 -284 -6 -103 38 -203 143 -242 253 -17 47 -20 75 -16
143 5 107 27 152 116 241 107 107 191 140 341 135 74 -2 106 -8 143 -26z
m7177 -75 c57 -148 103 -334 144 -595 20 -124 36 -235 36 -246 0 -18 -8 -22
-52 -28 -29 -3 -126 -6 -215 -6 -182 0 -168 -6 -164 75 1 22 10 51 20 65 17
24 24 25 143 30 86 4 130 10 142 19 10 9 13 18 8 23 -8 8 -198 26 -286 28 -19
0 -19 10 -12 350 3 192 9 356 12 364 8 20 25 23 111 25 l71 1 42 -105z m-9188
-21 c4 -27 9 -229 10 -449 l3 -400 -141 -3 c-119 -2 -143 0 -154 13 -11 14 -9
41 14 168 48 259 137 591 183 680 14 27 47 48 68 43 5 -1 13 -25 17 -52z m19
-1024 c10 -14 7 -155 -3 -165 -11 -11 -169 -17 -252 -10 l-88 7 4 84 c2 61 7
88 18 95 9 6 75 9 163 7 117 -3 150 -6 158 -18z m9307 11 l73 -1 -3 -82 -3
-83 -45 -7 c-58 -8 -343 -10 -392 -2 -37 6 -38 8 -38 51 0 59 23 111 52 118
37 8 107 11 198 9 47 -1 118 -2 158 -3z m-9366 -2803 c10 -18 14 -141 16 -536
l3 -512 -22 -33 c-67 -97 -133 -140 -216 -139 -117 1 -182 90 -159 215 16 84
131 177 219 177 33 0 47 4 52 18 12 29 19 552 7 552 -14 0 -113 -30 -378 -116
l-232 -75 -7 -62 c-4 -34 -10 -215 -14 -402 -6 -326 -8 -342 -30 -387 -44 -91
-123 -134 -227 -126 -84 7 -154 79 -154 156 0 116 102 215 235 229 l55 6 1
251 c0 262 11 542 21 551 8 8 779 253 800 254 10 1 23 -9 30 -21z m10106 -115
c15 -28 27 -999 13 -1049 -13 -47 -102 -139 -145 -150 -15 -3 -56 -4 -91 -2
-55 3 -69 8 -96 33 -130 122 -31 344 154 345 l47 0 0 298 c0 163 -3 307 -6
320 -4 15 -12 21 -23 18 -9 -2 -143 -41 -298 -87 l-283 -83 0 -386 0 -387 -38
-54 c-46 -65 -86 -94 -154 -109 -46 -9 -56 -8 -97 12 -101 51 -135 144 -87
242 39 79 116 126 207 126 l35 0 -3 358 c-2 196 -1 362 4 368 4 7 62 21 128
32 66 12 230 52 365 91 286 81 274 78 322 80 26 1 40 -4 46 -16z"/>
<path d="M6255 11303 c-16 -2 -59 -13 -94 -24 -222 -67 -365 -215 -471 -486
-69 -175 -85 -284 -47 -307 27 -16 51 19 83 122 42 139 103 244 205 356 95
104 203 176 341 226 46 17 108 46 140 65 31 19 64 35 75 35 10 0 25 5 33 10
15 10 -199 12 -265 3z"/>
<path d="M6272 11030 c-183 -66 -317 -196 -377 -365 -30 -85 -34 -182 -9 -192
28 -10 48 11 77 83 66 163 174 273 353 360 62 29 114 60 118 69 3 8 1 26 -4
40 -8 22 -15 25 -57 25 -27 -1 -72 -9 -101 -20z"/>
<path d="M6402 10768 c-102 -15 -184 -75 -229 -166 -58 -119 -29 -268 71 -360
127 -117 345 -114 466 7 57 57 75 116 68 229 -12 197 -171 320 -376 290z m131
-227 c11 -11 21 -38 24 -65 7 -58 -13 -91 -66 -107 -35 -10 -43 -9 -75 10 -50
31 -66 86 -39 133 10 18 30 39 44 46 31 16 87 8 112 -17z"/>
<path d="M7018 10343 c-9 -10 -39 -64 -68 -121 -69 -136 -140 -224 -235 -292
-146 -104 -160 -116 -160 -135 0 -30 27 -29 108 5 226 94 380 270 395 452 5
60 -3 108 -17 108 -4 0 -15 -8 -23 -17z"/>
<path d="M3982 10586 c-144 -36 -232 -85 -332 -186 -127 -126 -190 -261 -190
-406 0 -47 4 -63 16 -68 30 -11 51 14 89 101 78 184 148 286 246 358 84 62
171 100 268 119 46 8 86 18 89 20 8 8 -7 54 -24 70 -20 21 -50 19 -162 -8z"/>
<path d="M4034 10389 c-117 -15 -243 -106 -302 -217 -40 -75 -64 -161 -60
-214 3 -38 6 -43 28 -43 20 0 28 10 50 61 69 165 183 269 340 309 38 9 46 16
48 38 4 32 -12 63 -35 69 -10 2 -41 1 -69 -3z"/>
<path d="M4091 10128 c-63 -11 -116 -50 -151 -111 -56 -98 -36 -225 48 -298
72 -64 155 -83 246 -58 46 13 133 91 152 136 17 39 18 122 3 174 -34 111 -165
180 -298 157z"/>
<path d="M4577 9818 c-63 -104 -87 -136 -144 -187 -42 -39 -89 -70 -138 -92
-78 -34 -95 -58 -56 -79 45 -24 141 1 234 60 106 67 214 320 137 320 -11 0
-26 -10 -33 -22z"/>
<path d="M4764 9793 c-120 -218 -161 -274 -254 -343 -38 -28 -116 -73 -174
-100 -91 -44 -106 -54 -106 -75 0 -34 26 -56 58 -49 158 35 251 84 358 189 65
65 89 97 122 165 43 89 77 203 68 226 -10 25 -56 16 -72 -13z"/>
<path d="M8805 10474 c-172 -27 -416 -173 -581 -347 -96 -101 -156 -197 -197
-315 -29 -81 -31 -99 -35 -259 -8 -342 42 -468 277 -703 125 -124 192 -170
326 -221 164 -64 214 -73 405 -73 l175 -1 109 38 c139 48 225 104 346 226 109
110 158 179 212 301 44 100 58 180 58 340 0 271 -50 431 -195 625 -104 140
-196 215 -362 300 -130 66 -213 85 -373 90 -74 2 -148 1 -165 -1z m218 -514
c174 -25 293 -121 372 -300 16 -36 20 -66 20 -155 -1 -108 -1 -112 -39 -184
-21 -41 -48 -88 -59 -103 -34 -46 -117 -103 -187 -129 -56 -21 -83 -24 -195
-24 -125 0 -132 1 -189 30 -159 80 -256 230 -256 393 0 132 49 253 139 342 66
66 130 105 203 124 64 18 102 19 191 6z"/>
<path d="M8870 9811 c-87 -28 -165 -92 -203 -166 -28 -56 -35 -167 -13 -233
42 -126 148 -200 300 -209 77 -5 90 -3 138 20 162 80 227 250 153 400 -40 81
-95 140 -153 165 -53 23 -182 36 -222 23z m150 -190 c34 -24 70 -79 70 -106 0
-29 -63 -111 -92 -121 -31 -11 -56 -6 -101 19 -95 53 -87 165 14 215 46 23 68
22 109 -7z"/>
<path d="M6250 9370 c-213 -23 -463 -104 -700 -226 -408 -210 -764 -632 -914
-1084 -69 -208 -80 -285 -80 -565 0 -220 2 -264 22 -364 43 -211 150 -493 216
-563 51 -56 72 -20 28 50 -71 115 -150 356 -183 559 -21 122 -18 427 5 548 38
205 131 456 233 631 140 239 430 527 680 678 302 181 718 276 1088 248 312
-24 531 -103 830 -297 353 -228 672 -718 766 -1173 26 -126 37 -430 20 -569
-25 -198 -84 -392 -161 -528 -91 -160 -95 -173 -47 -161 46 11 151 196 206
363 52 156 65 262 65 513 0 310 -30 474 -134 740 -100 254 -186 397 -330 556
-256 280 -498 441 -845 564 -197 69 -262 80 -485 85 -113 2 -239 0 -280 -5z"/>
<path d="M6264 9068 c-108 -7 -278 -44 -412 -89 -215 -73 -431 -225 -633 -447
-137 -149 -240 -332 -309 -541 -62 -190 -75 -284 -75 -531 1 -237 15 -331 76
-515 78 -233 201 -437 240 -398 6 6 -19 65 -64 154 -75 148 -120 272 -159 439
-19 80 -22 125 -22 280 0 167 2 196 27 302 86 364 187 554 429 803 133 137
231 212 380 290 225 118 466 175 734 175 314 0 561 -79 853 -273 122 -81 296
-248 386 -371 202 -276 308 -677 276 -1045 -6 -68 -18 -150 -26 -180 -25 -97
-93 -271 -155 -397 -60 -121 -74 -174 -46 -174 22 0 51 47 141 228 101 203
117 250 145 421 49 295 -5 630 -145 912 -183 366 -348 550 -671 748 -284 173
-575 236 -970 209z"/>
<path d="M6220 8799 c-201 -18 -405 -107 -603 -263 -327 -257 -497 -596 -514
-1026 -10 -247 31 -443 141 -675 96 -203 181 -308 233 -288 16 6 6 26 -66 123
-113 154 -183 322 -216 519 -23 134 -16 385 13 511 61 261 180 468 389 677
232 233 514 343 878 343 221 0 360 -31 550 -125 178 -87 242 -132 371 -260
171 -168 236 -284 300 -532 100 -394 15 -811 -236 -1157 -50 -69 -61 -89 -49
-96 21 -13 59 16 126 96 133 159 198 300 244 535 72 358 -18 817 -210 1070
-186 244 -514 457 -804 520 -74 16 -382 40 -452 35 -11 0 -54 -4 -95 -7z"/>
<path d="M6200 8506 c-226 -48 -406 -160 -582 -361 -94 -108 -156 -225 -195
-370 -24 -92 -26 -116 -27 -295 -1 -153 3 -213 17 -280 26 -118 68 -222 129
-315 62 -96 286 -325 317 -325 12 0 21 3 21 6 0 18 -33 60 -115 145 -157 164
-238 311 -277 499 -27 129 -21 376 12 490 36 127 131 307 202 385 236 257 450
358 768 358 154 1 235 -20 396 -98 252 -123 413 -291 504 -528 54 -139 63
-194 57 -372 -6 -188 -28 -278 -106 -440 -63 -128 -130 -217 -211 -280 -140
-108 -182 -165 -121 -165 59 0 213 140 324 295 66 93 131 232 154 330 14 64
18 120 18 285 -1 204 -1 206 -33 297 -63 184 -155 337 -258 432 -142 130 -346
247 -509 292 -102 28 -382 36 -485 15z"/>
<path d="M10486 8287 c-17 -13 -18 -23 -12 -123 4 -60 12 -131 17 -159 5 -27
16 -105 24 -173 17 -143 32 -178 73 -167 15 4 29 9 31 11 9 9 20 133 32 357
10 197 10 230 -3 243 -21 21 -138 30 -162 11z"/>
<path d="M6334 8121 c-170 -27 -365 -152 -453 -290 -59 -92 -101 -251 -101
-383 0 -138 43 -256 140 -388 95 -128 181 -193 315 -237 69 -23 98 -27 205
-27 141 -1 238 21 341 75 74 40 208 174 247 247 64 121 101 314 82 424 -49
278 -227 487 -480 562 -64 19 -224 28 -296 17z m169 -525 c99 -42 109 -158 21
-236 -62 -54 -156 -30 -196 50 -28 54 -23 99 13 144 47 57 97 70 162 42z"/>
<path d="M10430 7500 l0 -82 113 7 c61 4 120 11 130 16 13 8 17 23 17 69 0 33
-1 60 -2 60 -2 1 -60 3 -130 7 l-128 6 0 -83z"/>
<path d="M10430 7142 c0 -104 4 -153 13 -166 22 -31 164 -49 206 -26 32 17 48
80 56 213 l7 127 -141 0 -141 0 0 -148z"/>
<path d="M3365 6350 l-800 -5 -85 -45 c-159 -83 -254 -206 -280 -363 -19 -107
-8 -314 20 -402 36 -113 78 -185 146 -252 111 -109 191 -136 424 -148 154 -7
7584 -7 7725 1 126 6 196 23 276 66 199 105 313 377 281 668 -9 85 -17 117
-46 174 -63 126 -158 222 -283 285 l-62 31 -3258 -2 c-1792 -2 -3618 -5 -4058
-8z m285 -300 l0 -90 -109 0 -109 0 -7 -289 -7 -289 -30 -6 c-17 -3 -57 -6
-89 -6 l-59 0 0 295 0 295 -105 0 -105 0 0 84 0 85 53 4 c28 2 168 4 310 5
l257 2 0 -90z m532 76 c79 -17 127 -46 190 -113 79 -86 93 -121 93 -243 0
-100 -2 -109 -34 -175 -64 -130 -185 -217 -323 -231 -53 -5 -80 -2 -138 15
-123 38 -207 109 -256 216 -25 54 -28 71 -28 175 -1 132 12 169 87 244 109
108 247 146 409 112z m600 -23 c44 -47 180 -226 241 -316 32 -48 48 -64 53
-55 5 7 10 100 12 206 l4 192 84 0 84 0 0 -374 0 -374 -22 -6 c-41 -11 -93 -6
-116 10 -12 8 -86 96 -165 196 -78 99 -149 189 -158 200 -15 19 -17 19 -22 3
-4 -9 -7 -79 -7 -154 0 -76 -3 -166 -6 -200 l-7 -61 -52 0 c-29 0 -67 3 -84 6
l-31 7 0 373 0 373 28 4 c15 2 50 5 77 6 47 1 54 -2 87 -36z m2067 24 c6 -8
13 -45 17 -84 l7 -70 -54 -6 c-30 -4 -116 -7 -191 -7 l-138 0 0 -75 0 -76 155
7 155 7 0 -86 0 -87 -155 0 -155 0 0 -134 0 -133 -71 -6 c-82 -7 -95 -3 -103
26 -10 37 -6 691 4 707 7 12 39 16 137 21 256 11 380 10 392 -4z m563 2 c103
-21 196 -99 246 -207 24 -50 27 -69 27 -162 0 -125 -17 -168 -101 -259 -194
-210 -522 -165 -643 89 -23 49 -26 67 -26 165 0 95 4 117 24 158 49 100 162
191 267 216 55 13 144 13 206 0z m1346 -221 c-3 -231 -3 -233 21 -272 45 -72
110 -92 190 -60 73 29 76 38 79 310 l3 241 52 7 c29 3 73 6 100 6 l47 0 0
-202 c-1 -223 -11 -331 -36 -380 -23 -45 -102 -126 -149 -153 -49 -29 -163
-49 -230 -40 -70 10 -142 51 -187 109 -70 88 -68 78 -69 375 -1 148 2 274 6
280 3 7 42 11 91 11 l84 0 -2 -232z m819 224 c6 -4 30 -41 54 -82 43 -78 111
-182 136 -212 8 -9 21 -14 29 -11 15 5 122 146 178 235 19 31 44 59 53 62 10
3 54 6 98 8 l80 3 3 -205 c3 -205 -10 -536 -22 -547 -3 -3 -39 -8 -81 -11
l-75 -5 0 110 c0 156 -11 323 -22 317 -5 -3 -36 -47 -70 -97 -69 -104 -125
-167 -148 -167 -23 0 -92 75 -141 155 -51 83 -69 106 -80 100 -4 -3 -5 -90 -2
-193 5 -169 4 -189 -11 -205 -18 -18 -76 -22 -135 -11 l-32 7 3 359 3 360 24
19 c17 14 39 19 85 19 33 0 66 -4 73 -8z m-3617 -81 l0 -78 -37 -7 c-21 -3
-104 -6 -185 -6 l-148 0 0 -60 0 -60 83 0 c128 0 235 -11 241 -25 2 -7 2 -40
-1 -73 l-6 -60 -158 -7 -159 -8 0 -53 0 -54 138 -2 c75 0 161 0 190 1 l53 3
-3 -88 -3 -89 -30 -6 c-16 -4 -141 -7 -277 -8 l-248 -1 0 380 0 380 275 0 275
0 0 -79z m2269 68 c76 -12 109 -28 151 -71 97 -100 90 -255 -17 -369 l-44 -47
64 -104 c84 -135 86 -144 46 -152 -17 -3 -59 -6 -94 -6 l-62 0 -62 100 c-34
55 -71 104 -81 110 -10 5 -43 10 -73 10 l-54 0 -7 -61 c-3 -34 -6 -84 -6 -110
l0 -49 -90 0 -90 0 1 298 c1 163 4 331 8 372 l6 75 35 6 c59 11 301 9 369 -2z
m-5391 -246 c3 -111 0 -189 -6 -195 -5 -5 -36 -10 -68 -11 -64 -1 -74 -7 -74
-50 0 -69 -61 -137 -123 -137 -51 0 -97 26 -113 66 -22 52 -6 77 66 104 68 25
80 45 80 130 0 70 6 90 29 90 31 0 61 31 96 100 37 74 81 118 99 100 7 -7 12
-82 14 -197z m7966 -19 c8 -64 7 -146 -2 -161 -5 -7 -48 -33 -96 -58 -95 -48
-137 -55 -186 -30 -52 27 -48 66 14 133 11 13 35 51 51 85 34 70 43 74 146 76
l66 1 7 -46z"/>
<path d="M4019 5947 c-102 -28 -154 -99 -147 -198 5 -69 39 -126 98 -165 181
-120 399 115 267 288 -56 73 -130 99 -218 75z"/>
<path d="M7236 5948 c-22 -6 -57 -28 -81 -52 -36 -34 -44 -49 -50 -93 -8 -65
0 -107 31 -155 30 -47 116 -98 164 -98 84 1 166 69 196 163 16 51 16 54 -5
103 -28 65 -87 123 -137 135 -47 10 -68 10 -118 -3z"/>
<path d="M8030 5962 c-24 -8 -25 -11 -28 -105 l-3 -97 105 0 c104 0 104 0 130
31 49 58 44 108 -14 151 -28 21 -146 33 -190 20z"/>
<path d="M5931 4860 c4 -136 7 -140 77 -140 l42 0 0 130 0 130 -61 0 -61 0 3
-120z"/>
<path d="M6465 4968 c-7 -18 -11 -419 -7 -741 l2 -268 58 3 57 3 3 508 2 507
-55 0 c-35 0 -57 -5 -60 -12z"/>
<path d="M3311 4860 l-85 -5 -73 -87 -73 -86 9 -487 c5 -267 11 -488 13 -490
2 -3 81 0 174 6 110 7 496 10 1111 8 833 -4 943 -2 949 11 3 8 8 229 11 490
l6 475 -64 88 -64 87 -915 -2 c-503 -1 -953 -5 -999 -8z m1829 -155 l0 -35
-902 0 c-497 0 -909 4 -916 9 -27 17 -9 46 33 52 22 3 433 7 913 8 l872 1 0
-35z m4 -187 c3 -17 4 -33 1 -36 -8 -9 -1356 -15 -1597 -7 l-238 7 0 27 c0 15
3 31 7 34 3 4 415 7 913 7 l908 0 6 -32z m-275 -176 c24 -5 55 -19 70 -29 37
-28 80 -118 93 -194 11 -60 10 -69 -10 -111 -30 -62 -84 -122 -135 -150 l-42
-23 -633 3 -634 4 -61 47 c-81 62 -107 112 -107 203 0 106 22 142 145 232 l50
37 610 -5 c336 -2 630 -9 654 -14z"/>
<path d="M4674 4211 c-40 -25 -68 -82 -59 -124 15 -67 86 -127 150 -127 31 0
113 65 121 95 12 47 -6 98 -47 137 -35 33 -46 38 -87 38 -28 0 -59 -8 -78 -19z"/>
<path d="M3633 4206 c-48 -22 -66 -57 -61 -117 4 -42 12 -57 41 -86 28 -29 45
-37 85 -41 49 -4 52 -3 96 42 28 28 46 54 46 68 -1 32 -33 99 -58 122 -28 25
-107 31 -149 12z"/>
<path d="M4010 4110 l0 -110 220 0 220 0 0 110 0 110 -220 0 -220 0 0 -110z"/>
<path d="M7991 4779 c-44 -44 -91 -98 -105 -118 l-26 -37 -7 -457 -6 -457
1180 0 1180 0 7 343 c3 188 9 398 12 467 l6 125 -97 108 -97 107 -983 0 -983
0 -81 -81z m1662 -56 l277 -6 0 -34 0 -33 -890 0 -890 0 0 40 0 40 613 0 c336
0 737 -3 890 -7z m210 -190 l67 -6 0 -32 0 -32 -337 -6 c-186 -4 -587 -7 -890
-7 l-553 0 0 38 c0 21 3 42 7 45 8 9 1615 9 1706 0z m-381 -213 l228 0 36 -37
c132 -140 137 -305 14 -416 -79 -71 -165 -84 -300 -46 -70 19 -85 20 -215 10
-128 -9 -476 -20 -732 -23 -91 -1 -107 2 -157 26 -67 33 -131 119 -142 192
-14 97 44 198 153 267 51 32 117 36 572 31 173 -2 417 -4 543 -4z"/>
<path d="M9535 4194 c-81 -42 -114 -114 -85 -188 13 -34 86 -86 122 -86 63 0
138 67 138 122 0 58 -66 143 -125 161 -11 4 -33 0 -50 -9z"/>
<path d="M8464 4189 c-37 -11 -91 -68 -100 -106 -13 -51 7 -95 60 -130 64 -43
107 -44 164 -2 56 41 74 95 48 144 -43 80 -107 114 -172 94z"/>
<path d="M8797 4113 c2 -38 0 -88 -6 -113 -5 -24 -8 -47 -5 -49 3 -3 115 -8
249 -11 l245 -5 0 76 c0 42 3 97 6 123 l7 46 -251 0 -251 0 6 -67z"/>
<path d="M6964 4730 c-35 -11 -90 -67 -105 -108 -22 -58 28 -160 91 -186 118
-47 250 20 250 128 0 54 -37 126 -75 148 -38 21 -120 30 -161 18z"/>
<path d="M5960 4590 c-45 -11 -96 -67 -110 -120 -28 -103 41 -171 173 -171
105 0 158 41 159 125 2 116 -104 196 -222 166z"/>
<path d="M6966 4284 c-3 -9 -6 -76 -6 -149 0 -148 6 -165 61 -165 67 0 69 4
69 175 l0 155 -59 0 c-44 0 -60 -4 -65 -16z"/>
<path d="M5940 4165 c-5 -14 -7 -67 -3 -120 5 -78 9 -95 22 -95 9 0 33 -3 54
-6 l37 -7 0 120 0 120 -37 7 c-58 9 -63 8 -73 -19z"/>
<path d="M6350 3697 c-367 -134 -601 -384 -675 -720 -26 -117 -17 -303 19
-417 53 -164 144 -297 288 -419 179 -153 352 -214 601 -212 182 1 326 41 475
130 185 111 294 244 388 474 63 156 67 378 9 532 -101 268 -267 455 -510 570
-125 59 -201 76 -375 81 -145 5 -159 4 -220 -19z m320 -509 c116 -28 229 -118
281 -223 21 -43 24 -64 24 -155 0 -115 -6 -132 -75 -225 -65 -87 -140 -144
-219 -165 -71 -19 -190 -14 -255 11 -82 30 -186 130 -228 218 -28 59 -32 76
-32 161 -1 85 3 101 28 153 54 112 168 210 273 237 42 10 133 5 203 -12z"/>
<path d="M6470 3054 c-74 -32 -140 -122 -155 -212 -23 -140 104 -282 253 -282
90 0 118 9 167 52 127 112 136 250 25 371 -35 39 -64 60 -97 71 -58 20 -147
20 -193 0z m178 -169 c55 -60 42 -129 -33 -175 -45 -28 -69 -22 -120 30 -49
50 -55 103 -15 146 52 56 116 56 168 -1z"/>
<path d="M4678 3604 c-3 -2 -272 -4 -599 -4 -327 0 -603 -3 -614 -6 -16 -4
-33 -40 -77 -162 -53 -149 -55 -157 -37 -166 28 -13 50 11 109 124 78 148 64
140 243 141 84 1 163 3 177 4 14 1 251 6 526 10 l502 7 20 -22 c11 -12 46 -71
78 -131 64 -121 94 -158 112 -136 12 14 -21 123 -81 262 l-34 80 -161 2 c-88
0 -162 -1 -164 -3z"/>
<path d="M9053 3590 c-408 -4 -766 -11 -796 -14 l-54 -7 -51 -117 c-63 -145
-81 -207 -65 -223 18 -18 64 37 115 139 55 109 72 119 230 132 126 11 1232 12
1318 2 61 -8 56 -1 143 -187 28 -60 36 -70 61 -73 16 -2 33 1 38 6 6 6 -15 71
-59 178 l-69 169 -35 1 c-18 1 -368 -2 -776 -6z"/>
<path d="M4230 2881 l-215 -6 0 -60 0 -59 50 3 c28 2 66 5 85 6 19 2 315 3
658 4 l622 1 0 49 c0 49 0 49 -37 55 -50 9 -890 13 -1163 7z"/>
<path d="M7815 2881 l-70 -6 -3 -46 -3 -46 287 -6 c158 -4 498 -7 756 -7 l468
0 0 48 0 49 -117 7 c-151 9 -1226 15 -1318 7z"/>
<path d="M7733 2580 c-18 -7 -23 -17 -23 -43 l0 -34 78 -6 c137 -11 883 -20
1015 -12 142 8 157 15 157 71 l0 34 -602 -1 c-335 0 -613 -4 -625 -9z"/>
<path d="M4362 2543 l3 -38 155 -6 c85 -4 327 -7 538 -8 l382 -1 0 45 0 45
-541 0 -540 0 3 -37z"/>
<path d="M8062 2313 c-4 -1 -103 -3 -221 -6 -194 -3 -215 -5 -227 -22 -23 -31
-17 -64 13 -76 36 -13 337 -25 478 -19 l110 5 3 43 c2 24 -2 50 -8 57 -9 11
-120 25 -148 18z"/>
<path d="M4968 2265 c-2 -19 -1 -41 4 -48 5 -9 76 -13 278 -15 l270 -3 0 35
c0 70 16 66 -280 66 l-268 0 -4 -35z"/>
<path d="M9015 7717 c-67 -32 -101 -66 -130 -129 -61 -130 -4 -292 125 -358
49 -25 156 -27 223 -4 53 18 118 82 142 141 24 57 21 144 -6 200 -66 137 -234
208 -354 150z m138 -158 c35 -18 57 -51 57 -87 0 -38 -31 -88 -60 -97 -40 -13
-120 53 -120 100 0 38 53 91 93 94 5 1 18 -4 30 -10z"/>
<path d="M9573 7383 c-42 -102 -69 -149 -116 -197 -52 -52 -149 -106 -218
-121 -19 -4 -40 -12 -46 -17 -16 -13 -17 -50 -1 -66 38 -38 241 28 333 109 67
59 131 240 106 302 -15 38 -39 34 -58 -10z"/>
<path d="M9797 7382 c-9 -9 -26 -47 -40 -83 -46 -121 -108 -220 -183 -291 -43
-40 -138 -94 -218 -124 -152 -57 -218 -106 -187 -137 17 -17 109 -10 187 14
238 73 396 229 478 471 28 83 31 109 16 137 -14 27 -36 32 -53 13z"/>
<path d="M3855 7881 c-48 -12 -87 -36 -132 -83 -54 -55 -73 -102 -73 -178 0
-172 161 -286 333 -236 115 33 170 119 171 266 1 76 -2 89 -25 125 -34 52 -55
69 -109 94 -46 21 -109 25 -165 12z m116 -180 c21 -22 29 -39 29 -66 0 -45
-45 -95 -85 -95 -34 0 -95 59 -95 92 1 50 47 97 98 98 13 0 37 -13 53 -29z"/>
</g>
</svg>
